<svg id="Layer_1" data-name="Layer 1" xmlns="http://www.w3.org/2000/svg" viewBox="0 0 340.16 340.16">
    <defs>
        <style>.cls-1,.cls-2{fill:#0b6bcb;}.cls-1{fill-rule:evenodd;}</style>
    </defs>
    <title>Artboard 1</title>
    <path class="cls-1"
          d="M169.8,118.46a1.19,1.19,0,0,0,1.18-1.18,1.18,1.18,0,1,0-2.36,0A1.19,1.19,0,0,0,169.8,118.46Z"/>
    <path class="cls-1"
          d="M247.23,151.56a28.09,28.09,0,0,1-6.61.68,79,79,0,1,0-141.65,0,28.85,28.85,0,0,1-6.69-.68c-4.87.25,15.56,17.43,15.87,17.68-3.73-.54-6.61-.91-7.89-1.53-1.55-.15-.93,2,.62,4.84,4,11.28,14.18,19.33,24.53,24.51a17.7,17.7,0,0,0-3.35,3.48,3.39,3.39,0,0,1-.74.44.79.79,0,0,0,.34,1.36,39.25,39.25,0,0,0,17.76,5.84c13.22,1.17,25-3.86,29.86-11.84h.49v-.09h0v.09h.47c4.9,8,16.63,13,29.87,11.84a39.13,39.13,0,0,0,17.73-5.84.81.81,0,0,0,.38-1.36,4.39,4.39,0,0,1-.78-.44,17.7,17.7,0,0,0-3.35-3.48c10.37-5.18,20.51-13.22,24.53-24.51,1.55-2.82,2.17-5,.62-4.84-1.24.62-4.16,1-7.88,1.53C231.66,169,252.1,151.81,247.23,151.56ZM169.8,42.21a75,75,0,0,1,66.42,110A79.39,79.39,0,0,1,222,150.79c-1.88-.43-4.4-1-7.22-1.43a55.31,55.31,0,1,0-89.95,0c-2.22.34-4.61.78-7.3,1.39a79.35,79.35,0,0,1-14.13,1.44,75,75,0,0,1,66.4-110ZM145.23,191.32c7-2,13.61-2.46,17.83-1.43h-.37a2,2,0,0,1,2,2,1.72,1.72,0,0,1-.07.37h-3.2l0,0,0,0H142.22C143.18,191.91,144.18,191.6,145.23,191.32ZM127.52,149a52.56,52.56,0,0,1-10.59-30.58h10.24A43,43,0,0,0,128.79,129l-.36.13a8.18,8.18,0,0,0-3.14,2.73c-.15,1.12-1.09,2.21-1.7,3.27s-.9,2.14.15,3.25a26.14,26.14,0,0,1,5.47.56,5.68,5.68,0,0,1,4,3.76c1,2.65,2.6,4.35,4.38,5l-1,.95A47.84,47.84,0,0,0,127.52,149Zm84.91-32.94a42.34,42.34,0,0,0-5.87-20.43c.19-1.33-.19-2.87,0-4.23.46-3.14-1.25-4.58-3.37-5.88L208,80.72a52.64,52.64,0,0,1,14.66,35.38Zm-68.32,72.08V160.7c1.93-2.4,6.28-4,11.4-4,6.12,0,11.19,2.4,12.28,5.57v24.91C162.82,185.2,153.87,185.48,144.11,188.18ZM203.25,87.46c1.18,1.34,1.12,3.57.74,7-3.63-4.54-7.14,1.74-7.39-3.54-2.64-3.23-5.31.15-6.18-6.31.12-2.17-.46-4.72,1.49-6.11,2.59-.53,1.93,2.57,3.89,3.44C197.56,85,200.48,86.32,203.25,87.46Zm-14.25,0c.52,1.24.8,2.14,1,2.14,1.29-.24,2.61.75,3.78,2l-1.31,1.31c-.52-.58-1-1.17-1.61-1.72.13-.31-2.7-1.18-2.29-1.46-.62.56-1.63.77-2.17,1.57A30.69,30.69,0,0,0,171,86.51V77a40.18,40.18,0,0,1,17.46,4.55C187.77,83.67,187.38,85.84,189,87.46Zm6.74,41.42c-.55-1-1.59-.79-2.52-.79a2.05,2.05,0,0,0-.87,2.17c.48,1,1.4.87,2.28.85a29,29,0,0,1-3.89,5.4l-1.15-1.15A4,4,0,0,0,191,135c2.55-2.8-1.89-4.66-2.17-5.38s.34-1,0-1.3c3.76-1.4,7.89-3.29,6.93-8.84a6.07,6.07,0,0,1-1.11-1h3.47A28.73,28.73,0,0,1,195.74,128.88Zm-7.62,20.26c-.5,1.62-2.36,1.77-3.73,2.58-5-1.06-5.74-6.74-15-1.71-2.58-.87-1.34-4.88-2.11-7.27.87-1.83,1.05-4.26,3-5.65l.41-.14a18.79,18.79,0,0,0,2.11-.19c2.64.05,5.66.64,6.14-2.62.21-1.74.69-2.24-.9-3.66-8.91-.16-7.17-3.61-3.85-6.28,1.68-2.24,1.09-3.63,1.12-7,0-4.1-4-8.13-4-8.13.53-2,3.73-1.74,4.2-1.25,1.52.65,4.47.4,5.43,2.27,4.32.53,4.6-.75,4.5-3.1L184,101.56c1.8.19,6,5.31,7.61,7.21,1.31,1.51-.56,4-.72,6.15-.21,3.13,4.54,5.52,1.75,8.66-1.31,3-6.75,1.27-6.75,4.93-.3,2.24,3.89,2.8,3.58,5-3.3.16-6.31-2.07-8.76-.14-1.09,1.52,1.08,3.6,2.27,4.87,2.39,1.83,3.6-.4,6.4,1.52-.5.5-.13,1.37-.91,3S188.53,147.93,188.12,149.14ZM171,157v-5.29a22.82,22.82,0,0,1,2.39-1.25c3.68-2.12,5.68,1.3,8.38,2.81C176.9,153.7,172.89,155.12,171,157Zm-15.84-3.83c-1.1,0-2.16.06-3.2.16a40.24,40.24,0,0,1-7.94-5.23,11.82,11.82,0,0,1,4.77,1.93A5.81,5.81,0,0,1,152,150a3.61,3.61,0,0,0,2.75-.77,5.91,5.91,0,0,0,2.18-2.43,2.72,2.72,0,0,0,0-1.53,30.77,30.77,0,0,0,8.88,2.52,8.22,8.22,0,0,0,1.88,4,2.76,2.76,0,0,0,.87.39v4.93C166.42,154.83,161.22,153.21,155.14,153.21ZM187.42,95c0,.23.13.46.15.68a8.76,8.76,0,0,0,.18,2l-1.88,1.88a5.4,5.4,0,0,0-3.34-.82,4,4,0,0,0-.78,2.89A19.47,19.47,0,0,0,171,97.65V88.88A28.28,28.28,0,0,1,187.42,95Zm-4,12.48c-1.49,1-3.85-.31-4.84-1.8-1.93.43-3.45-1.18-5.16,0-2.64.65-5.5.65-4.75,3.88.31,1.93,1.71,2.36,3,3.88,1.18,3,2.33,5.91,1.24,9.13a5.72,5.72,0,0,1-6,3c-.53.75-1.58,1.36-.75,2.79a38.53,38.53,0,0,0,9.36,4.6c.55.2.7.38.72.54a17.52,17.52,0,0,1-22.13-8.81,4.57,4.57,0,0,1,2.42.07l2,2.39,2,2.36a5.13,5.13,0,0,0,2.23-1.55,16.45,16.45,0,0,1,2.11-2.18c-.37-.93.28-1.3-1.71-3-.93-.78-1-2.26-.58-3.75a3.25,3.25,0,0,1,1.64-.38,4.16,4.16,0,0,1,1.77.19c.43-1.74-.8-4.16.25-5.93s1.06-4.07,1.52-5.93a2.79,2.79,0,0,0-1.68-2.68,7.28,7.28,0,0,0-3.07-.37,7,7,0,0,0-2.08,1,7.73,7.73,0,0,0-1.8,1.61c-1.21,1.42-2.16.92-3.15.27a17.47,17.47,0,0,1,27.24-.55A1.83,1.83,0,0,1,183.37,107.46ZM165.3,142.53c.08.93.14,1.89.23,2.84a28.29,28.29,0,0,1-15-7.17l6.18-6.18A20.16,20.16,0,0,0,168,136.88,13.85,13.85,0,0,0,165.3,142.53Zm-20.44-25.44,1.7-2.39c.84-1.22,1.75-2.48,1.87-2.64a13.67,13.67,0,0,1,2.33-2.14,10.78,10.78,0,0,1,2.33-1.25c1.18-.43,1.95.19,2.76.78s1.62,1.11,2.83.53c1.09-.38,1.43-2.67,3.48-3.11,1.52-.31,2.45-1.21,3.66,1.46a9.76,9.76,0,0,0-1.55,4,16.87,16.87,0,0,0-.28,4.19c-.25.28-.87.19-1.49.13s-1.24-.13-1.55.15a3.61,3.61,0,0,0-.81,3.6,19,19,0,0,0,1.59,3.36c.06,1.49-.16,2-.41,2.27s-.53.22-.65.55c-.47-.55-1.3-1.74-2.24-2.76s-1.93-1.9-2.77-1.77a5.61,5.61,0,0,0-2,.34c-.75.22-1.37.44-1.37.44-1.61-.91-2.36-2.61-3.26-4A3.56,3.56,0,0,0,144.86,117.09Zm23.76-19.43a19.74,19.74,0,0,0-11.87,4.85l-6.15-6.14a28.21,28.21,0,0,1,18-7.48Zm-13.56,6.53c-.43.49-.86,1-1.26,1.56a2.41,2.41,0,0,0-1.58.34A25.49,25.49,0,0,0,146,111.9c-1.07,1.35-2.08,2.77-3,4.2h-1.58a28.5,28.5,0,0,1,7.52-18ZM146.63,119a25,25,0,0,1,1.83,3.1,9.77,9.77,0,0,0,2.46,2.95,2.37,2.37,0,0,0,.84.2,19.57,19.57,0,0,0,3.29,5.07l-6.17,6.17-.29-.3c-.28-2.46.46-5-.25-7.26-.31-1.61-1.65-3.23-2.43-4.87S144.83,120.75,146.63,119Zm39.32,16,1.75,1.76c-2.12-.09-4.47,0-5.17-1.76A6.92,6.92,0,0,1,186,135.07Zm7.64-19c-.43-2.35.5-5,.15-7.49-2-1.9-3.74-5.31-6-7.59l1.92-1.93c2.54,1,4.13,6,6.53,7.61a30.5,30.5,0,0,1,1.08,3.27,2.7,2.7,0,0,0-1.07.1c-.44,1-1.15,2.61-.84,3.79a2.52,2.52,0,0,0,2.7,1.64,2,2,0,0,0,.09-.2c0,.27,0,.53,0,.8Zm3.51-12.61c-2.27-2-3.79-4.35-6.93-6a6.16,6.16,0,0,0-1.46-4.1c-1-1.11,1.71-.4,1.71-.4,2.92,2.67,4.5,6.55,7.52,8.82,0,0,1.58.55.56,1.8A.83.83,0,0,1,197.1,103.49ZM170.76,74c-.12-1.27,1.28-2.67,2.15-.83A2.07,2.07,0,0,1,170.76,74Zm-2.14,3v9.51a30.67,30.67,0,0,0-19.71,8.14L142.2,88A40.09,40.09,0,0,1,168.62,77ZM147.23,96.35a30.66,30.66,0,0,0-8.18,19.75h-9.47a40.09,40.09,0,0,1,10.94-26.45Zm-8.17,22.11c0,.33,0,.65.06,1A7.39,7.39,0,0,0,135.2,123c-1.08,2-1.49,4.22-3.13,5.74a6.94,6.94,0,0,0-.9-.12,40.46,40.46,0,0,1-1.61-10.15Zm-9.26,12.2a4.18,4.18,0,0,0,1.49,1,1.87,1.87,0,0,0,2-.58c1.22-1.18,1.87-3,2.55-4.76s1.39-3.41,2.74-4.38a7,7,0,0,0,1.05-.12,12.18,12.18,0,0,1,1.43-.21l1.3-1.31,1.27-1.3a6.2,6.2,0,0,0,.44,5.71c.84,1.53,2,2.82,2.11,4.72l.25,5.37.25,5.35a4.83,4.83,0,0,0,2.67,2.14,20.67,20.67,0,0,1,3.36,1.3,1.48,1.48,0,0,1,.62.38,3,3,0,0,1,.77,2,1.92,1.92,0,0,1-.87,1.8,2.38,2.38,0,0,1-1.43.25,15.9,15.9,0,0,0-6.46-1.55c-2.32-.22-4.19-.22-6.76-.34a21.37,21.37,0,0,0-3.7-5.28,13.1,13.1,0,0,0-4.94-3.76l-2.21-.4-2.2-.4a16.68,16.68,0,0,1,1.46-3.39A4.93,4.93,0,0,1,129.8,130.66Zm42,31.59c1.05-3.17,6.15-5.57,12.26-5.57,5.13,0,9.44,1.62,11.4,4v27.48c-9.78-2.7-18.73-3-23.69-1Zm15.85-8.87-.62-.06a5.55,5.55,0,0,0,3.59-4.18c-.72-4.39-.2-7,1.21-8.23l5.64,5.64A40.27,40.27,0,0,1,187.61,153.38Zm4.79-15.21c.52-.56,1-1.13,1.48-1.72,1.17,1.42,3.56,1.13,5.36,1.58.25-3.83,3.45-2.4,3.45-4.76-1.61-1.52-3.45-1-5.5-1.52a1.79,1.79,0,0,1-.53.53,31.29,31.29,0,0,0,3.87-13.82H210a40.06,40.06,0,0,1-10.92,26.41Zm3.83-3.19,2.27-.5-.31,1.59C198,135.54,196.05,136.07,196.23,135Zm4.31-18.88a30.52,30.52,0,0,0-1.75-9.21,3.57,3.57,0,0,0,.58-.3c.68-4.88,2-5.62,4.71-5,1.09-2.92-.7-3.73-2.7-4.53s-2.45,1.21-2.32,3A29.84,29.84,0,0,1,194,94.74l1.24-1.24c.71,1,1.28,1.93,1.63,2.47,5.34-2.49,5.36.63,7.89,1.35A40.07,40.07,0,0,1,210,116.1Zm.57-31.8a8.45,8.45,0,0,1-4-4.51c-2.48-4.1-5.37-4.94-7.52-1.8a13,13,0,0,1-.37,1.3A42.42,42.42,0,0,0,176,75.07a7,7,0,0,0,.43-2.7c-.94-2.15-3.95-1.79-5.49-2.49v-5.5A52.76,52.76,0,0,1,206.36,79ZM168.62,73.12a5.57,5.57,0,0,1-.28,1,1.85,1.85,0,0,0,0,.51,42.41,42.41,0,0,0-27.79,11.61L133.27,79a52.66,52.66,0,0,1,35.35-14.66Zm-37,7.59L138.84,88a42.43,42.43,0,0,0-11.65,28.14H116.94A52.72,52.72,0,0,1,131.59,80.71Zm8.92,67.54c.55.52,1.09,1,1.67,1.53a19.12,19.12,0,0,0-2.53-.68Zm34.38,44a1.68,1.68,0,0,1-.06-.37,2,2,0,0,1,2-2h-.37c4.25-1,10.81-.59,17.86,1.43,1,.28,2,.59,3,.93Zm24.22-44,.87.87a21.19,21.19,0,0,0-2.58.67C198,149.28,198.55,148.76,199.11,148.23Zm3.82.46-2.14-2.13a42.43,42.43,0,0,0,11.64-28.1H222.7A52.46,52.46,0,0,1,212.11,149,46.93,46.93,0,0,0,202.93,148.69Zm-101.49,7.25c2.49,0,9.16.35,14.57-1,20.09-4.76,23.66-2.67,27.45.53a.81.81,0,0,1,.12.18,9.83,9.83,0,0,0-1,.6l.31-.25a13.7,13.7,0,0,1-6,2.7,2,2,0,0,0-1.95,2v3.61c-7.51-1.17-18.36-4-18.77-4-.89-.07-.93.18-1,.64l-.09.38a.79.79,0,0,0,.65,1c.8.16,19,4,19,4s.17,0,.26,0V177C127.46,176.07,94.28,156.12,101.44,155.94Zm38.7,7.33v25.22c0,.71-.25,1.3-.56,1.3s-.59-.59-.59-1.3V163.27c0-.71.25-1.3.59-1.3S140.14,162.56,140.14,163.27ZM123.46,191.5c-7.39-4.53-13.2-10.22-16.7-15.9l.56.41c-1.59-1.9-1.9-3-.29-2.83,8.28-.46,14.72,3.42,28,8.32v4.05c-6.53-2.37-13.63-5.42-13.94-5.51-.87-.19-1,.06-1.12.5l-.15.37a.81.81,0,0,0,.49,1.12c.56.19,9.65,3.67,14.72,5.62v6.71a2,2,0,0,0,2,2l11.38,0c-.18.5-1,.87-2,.87C140.23,198.49,132.41,197,123.46,191.5Zm4.88,9.88-.47,0a9.93,9.93,0,0,1,2-2.3c7.29,2.77,20.94,5.35,26.36-2.74h6.75C157.37,204.07,143.12,206.22,128.34,201.38Zm82.83,0c-14.79,4.84-29,2.69-34.6-5h6.75c5.42,8.09,19.1,5.5,26.39,2.74a10.2,10.2,0,0,1,1.92,2.3Zm21.31-28.2c1.61-.19,1.3.93-.25,2.83l.55-.41c-3.53,5.68-9.34,11.37-16.74,15.9-8.94,5.47-16.76,7-22.92,5.75-1,0-1.79-.37-2-.87l11.38,0a2,2,0,0,0,2-2v-6.7c5.08-2,14.15-5.44,14.71-5.63a.81.81,0,0,0,.5-1.12l-.16-.37c-.15-.44-.21-.69-1.08-.5-.34.09-7.45,3.14-14,5.51V181.5C217.75,176.61,224.2,172.72,232.48,173.18ZM199.4,188.49V163.27c0-.71.25-1.3.56-1.3s.56.59.56,1.3v25.22c0,.71-.25,1.3-.56,1.3S199.4,189.2,199.4,188.49ZM204.51,177V166.39c.1,0,.18.07.28.05s18.14-3.88,18.95-4a.77.77,0,0,0,.65-1l-.06-.38c-.13-.46-.16-.71-1-.64-.4,0-11.32,2.81-18.79,4v-3.61a2,2,0,0,0-2-2,13.63,13.63,0,0,1-6-2.7l.28.25a9.26,9.26,0,0,0-.93-.59c0-.06.07-.15.13-.19,3.75-3.2,7.32-5.29,27.42-.53,5.4,1.31,12.08,1,14.59,1C245.26,156.12,212,176.08,204.51,177Z"/>
    <path class="cls-1"
          d="M110.39,77.86a1.62,1.62,0,0,1,2.51-.55l7.77,5.62a1.68,1.68,0,0,1,.24,2.6l.34.25,4.2-5.77-.34-.25a1.66,1.66,0,0,1-2.55.56l-7.74-5.62a1.65,1.65,0,0,1-.27-2.58l-.34-.28L110,77.62Z"/>
    <path class="cls-1"
          d="M126.1,74.23a2.56,2.56,0,0,0-.06-3.6,2.55,2.55,0,1,0-3.54,3.66A2.54,2.54,0,0,0,126.1,74.23Z"/>
    <path class="cls-1"
          d="M131.81,72.61,132,73l3.42-2.24-.22-.37c-1.17.78-2,.44-2.18-.66l-.4-1.92,3.92-2.55,2.08,1.41c1,.68-.06,1.54-.78,2l.25.36,5.44-3.54-.22-.37a1.36,1.36,0,0,1-1.71,0l-11.18-7.7-.53.34,2.43,12.92C132.59,71.87,132.25,72.31,131.81,72.61Zm4.07-7.85L132.5,67l-1.12-5.27Z"/>
    <path class="cls-1" d="M146.82,60.41a2.54,2.54,0,1,0-3.33-1.4A2.54,2.54,0,0,0,146.82,60.41Z"/>
    <path class="cls-1"
          d="M151.94,50l1.83,9.38a1.53,1.53,0,0,1-1.31,2l.1.44L164,59.54l.1-4.29-.57.1c-.83,3.17-2.2,4.35-5.12,4.65-1,.13-1.21-.12-1.4-1.14l-.9-4.57c2.33-.31,2.77-.06,3.89,2.36l.43-.09-1.3-6.68-.44.1c-.12,2.67-.44,3.07-2.7,3.63l-.91-4.6c-.18-1-.08-1.21.62-1.33l1.75-.31c3.17-.53,3.85,2.14,4.19,2.79l.37-.09-.8-4.13-11.31,2.21.1.39A1.57,1.57,0,0,1,151.94,50Z"/>
    <path class="cls-1" d="M170,56a2.55,2.55,0,1,0,.1-5.1A2.55,2.55,0,0,0,170,56Z"/>
    <path class="cls-1"
          d="M175.92,59.39c1,.15,2.14,1,3.32,1.24,4.35.68,5.5-2.05,5.72-3.48.31-1.93-.78-3.79-3.7-5.37-2.12-1.12-2.33-2.21-2.21-3.11A2.07,2.07,0,0,1,181.51,47c2.7.47,3,3.27,3.38,4.41l.41.07.68-4.45-.46-.06c-.31.38-.41.69-.72.66-1-.19-1.43-1-3.54-1.35a4,4,0,0,0-4.53,3.49,4.71,4.71,0,0,0,2.32,4.53c3,2,3.61,2.74,3.42,3.88-.06.5-.46,2.21-3.11,1.8-1.83-.3-2.85-2.61-3-3.41l-.18-1.49-.47-.06-.77,4.9.46.06C175.55,59.63,175.67,59.35,175.92,59.39Z"/>
    <path class="cls-1" d="M190.51,59.51a2.55,2.55,0,1,0-1.58-3.26A2.53,2.53,0,0,0,190.51,59.51Z"/>
    <path class="cls-1"
          d="M202.41,69a1.57,1.57,0,0,1-.56-2.33l5.72-9.5a3.66,3.66,0,0,1,2.05,2.33,3.83,3.83,0,0,1-.38,2.73l.38.22L211.76,59l-10.47-6.3-2.14,3.54.4.21a3.93,3.93,0,0,1,2.21-1.61,3.68,3.68,0,0,1,3,.71L199.08,65a1.56,1.56,0,0,1-2.32.63l-.22.37,5.65,3.38Z"/>
    <path class="cls-1" d="M210.8,71.68a2.49,2.49,0,0,0,3.57-.18,2.54,2.54,0,1,0-3.57.18Z"/>
    <path class="cls-1"
          d="M214.77,77.49a1.56,1.56,0,0,1-2.39-.28l-.34.25,7.05,9.32L223,85l-.34-.44c-3.2.6-4.88-.12-6.43-2.58-.56-.9-.41-1.15.43-1.77l3.7-2.79c1.31,1.92,1.28,2.42-.41,4.5l.25.34,5.44-4.06-.28-.34c-2.45,1-2.92.92-4.44-.88l3.72-2.82c.84-.62,1.06-.62,1.5,0l1,1.43c1.87,2.61-.25,4.37-.68,5l.24.3,3.39-2.54-6.92-9.2-.35.25a1.59,1.59,0,0,1-.4,2.4Z"/>
    <path class="cls-1"
          d="M176.38,71.16c2.06.09,5.25,2.11,6.87.93.53-1.18,2.05-2,.43-3.17-1.08.43-7.3-2.61-7.73-.37C176.08,69.41,175.64,70.5,176.38,71.16Zm4.14-1.44c-.53.75-1.44-.15-1.87.35C178.56,68.76,179.65,67.86,180.52,69.72Z"/>
    <path class="cls-2" d="M83.62,264.59H78.45V223.13h5.17Z"/>
    <path class="cls-2"
          d="M102.76,254.2,98,264.59H92.47l19.8-43.22,19.8,43.22h-5.56l-4.72-10.39Zm9.51-21.51-7.37,16.78h14.74Z"/>
    <path class="cls-2" d="M141,223.13h22.27v4.72h-17.1v11.61h16.61v4.73H146.21v15.67h17.1v4.73H141Z"/>
    <path class="cls-2"
          d="M193.62,231a7.09,7.09,0,0,0-6.66-3.9c-3.3,0-6.93,2.25-6.93,5.88,0,3.24,3.19,4.95,5.78,5.94l3,1.15c5.88,2.31,10.28,5.56,10.28,12.49,0,7.53-5.83,12.92-13.25,12.92A12.93,12.93,0,0,1,173,253.87l5.23-1.1a7.84,7.84,0,1,0,15.67-.22c0-4.46-3.57-6.38-7.15-7.87l-2.86-1.21c-4.73-2-9-4.73-9-10.5,0-6.71,5.94-10.72,12.21-10.72a11.82,11.82,0,0,1,10.67,6.26Z"/>
    <path class="cls-2" d="M221.39,264.59h-5.17V227.85h-9.84v-4.72h24.85v4.72h-9.84Z"/>
    <path class="cls-2" d="M240.81,223.13h22.27v4.72H246v11.61h16.6v4.73H246v15.67h17.1v4.73H240.81Z"/>
</svg>