<?xml version="1.0" encoding="utf-8"?>
<!-- Generator: Adobe Illustrator 22.0.1, SVG Export Plug-In . SVG Version: 6.00 Build 0)  -->
<svg
        xmlns:inkscape="http://www.inkscape.org/namespaces/inkscape"
        xmlns:sodipodi="http://sodipodi.sourceforge.net/DTD/sodipodi-0.dtd"
        version="1.1"
        id="svg8" inkscape:export-filename="C:\Users\Maria\Desktop\iaeste\szakal\osobno_sluchawki.png"
        inkscape:export-xdpi="299"
        inkscape:export-ydpi="299" inkscape:version="0.92.3 (2405546, 2018-03-11)"
        sodipodi:docname="osobno_sluchawki.svg" xmlns="http://www.w3.org/2000/svg" x="0px" y="0px" viewBox="0 0 850 850"
        style="enable-background:new 0 0 850 850;" xml:space="preserve">
<style type="text/css">
	.st0{fill:url(#path831_1_);}
	.st1{fill:url(#path833_1_);}
	.st2{fill:url(#path837_1_);}
	.st3{fill:url(#path829_1_);}
	.st4{fill:url(#path835_1_);}
	.st5{fill:#FFFFFF;}
	.st6{fill:url(#path847_1_);}
	.st7{fill:url(#path851_1_);}
</style>
    <sodipodi:namedview bordercolor="#666666" borderopacity="1.0" id="base" inkscape:current-layer="layer1"
                        inkscape:cx="255.47853" inkscape:cy="445.45333" inkscape:document-units="mm"
                        inkscape:pageopacity="0" inkscape:pageshadow="2" inkscape:window-height="1001"
                        inkscape:window-maximized="1" inkscape:window-width="1920" inkscape:window-x="2391"
                        inkscape:window-y="967" inkscape:zoom="0.64" pagecolor="#000000" showgrid="false" units="px">
	</sodipodi:namedview>
    <g id="layer4" transform="translate(0,-72.10415)" inkscape:groupmode="layer" inkscape:label="niebieskoe">
</g>
    <g id="layer1" transform="translate(0,-72.10415)" inkscape:groupmode="layer" inkscape:label="Layer 1">
	<g id="g1050" transform="translate(1.7537596,70.352126)">
		<g id="g901" transform="matrix(1.6593746,0,0,1.6593746,-37.326009,-111.44537)">
			<g id="g993">
				
					<linearGradient id="path831_1_" gradientUnits="userSpaceOnUse" x1="87.4209" y1="578.1293"
                                    x2="88.0239" y2="343.3004"
                                    gradientTransform="matrix(1.6594 0 0 -1.6594 23.8827 1104.4183)">
					<stop offset="0" style="stop-color:#40A196"/>
                        <stop offset="1" style="stop-color:#1166A1"/>
				</linearGradient>
                <path shape-rendering="geometricPrecision" id="path831" inkscape:connector-curvature="0" class="st0" d="M242.6,244.8c0.4-21.4-2.6-42.8-8.7-63.4
					c-4.4-14.3-9.9-28.2-16.6-41.6c-6.8-14.1-14.9-27.5-24.1-40.2c-2.3-3.2-4.7-6.2-7.1-9.3c-1.1-1.4-2.4-3.6-3.9-4.5
					c-2.2-1-4.4-1.8-6.7-2.4l-28.1-9.8c-1.5-0.4-3.1,0.2-3.9,1.6c-8.7,15.5-16.3,31.6-22.8,48.2c-8.2,21-14.4,42.6-18.5,64.7
					c-4.3,22.5-6.5,45.4-6.4,68.4c0.2,18.1,2,36.2,5.3,54c2.7,13.7,6.1,27.3,10.2,40.6l1.3,4.3c0.6,1.9,2.5,2.9,4.4,2.4
					c0.5-0.2,1-0.4,1.4-0.8l12.3-11l29.3-26.1l35.7-31.8l30.7-27.3c5-4.4,10.3-8.7,15-13.4l0.2-0.2c3.4-3-1.6-7.9-4.9-4.9l-12.3,11
					l-29.3,26.1l-35.8,31.8l-30.7,27.3l-10.2,9.1c-1.6,1.4-3.4,2.8-4.8,4.3c-0.1,0.1-0.1,0.1-0.2,0.2l5.8,1.5
					c-3.9-12.7-7.5-25.6-10.3-38.6c-3.5-16.7-5.6-33.7-6.2-50.8c-0.7-21.7,0.8-43.5,4.3-64.9c3.7-22.6,9.5-44.8,17.3-66.3
					c6.2-16.9,13.6-33.4,22.3-49.2c0.9-1.6,1.8-3.3,2.7-4.9l-3.9,1.6l34,11.9l-1.5-0.9c16.3,19.8,29.6,41.9,39.6,65.6
					c8.4,19.3,14.6,40.2,16.9,60.9c1,9,1.4,18,1.2,27C235.5,249.2,242.5,249.2,242.6,244.8L242.6,244.8z"/>

                <linearGradient id="path833_1_" gradientUnits="userSpaceOnUse" x1="152.5728" y1="578.2966" x2="153.1759"
                                y2="343.4677" gradientTransform="matrix(1.6594 0 0 -1.6594 23.8827 1104.4183)">
					<stop offset="0" style="stop-color:#40A196"/>
                    <stop offset="1" style="stop-color:#1166A1"/>
				</linearGradient>
                <path shape-rendering="geometricPrecision" id="path833" inkscape:connector-curvature="0" class="st1" d="M276.8,272.1h29l-2.5-1l7.1,6.2l18.3,16
					c8.4,7.3,16.7,14.6,25,21.9c9,8,18.1,15.9,27.1,23.9c8.2,7.3,16.4,14.7,24.6,22.1c5.9,5.4,11.9,10.8,17.7,16.3
					c1.6,1.5,3.3,3.1,4.8,4.8l0.7,0.8c0.7,0.7-0.4-0.7,0-0.1c0.4,0.6-0.1-0.3-0.1-0.4c0-0.1-0.1-0.9-0.1-0.9c-0.3-0.3,0.1-0.3-0.3,0
					c-0.3,0.3-0.6,1.4-0.8,1.9l-1.7,4.1l-11.7,29l-0.8,2.1l-9.1,22.6l-5.7,14.2l3.4-2.6c-32.1,0-64.3-0.4-96.4-0.6
					c-32.4-0.2-64.8,0-97.1,0.3c-18.1,0.2-36.3,0.3-54.4,0.3l3.4,2.6l-14.1-34.9l-1.1-2.7l-7.3-18.1l-5.1-12.6l-1.4-3.5
					c-0.2-0.5-0.4-1.5-0.8-1.9c-0.4-0.3,0-0.4-0.3,0c0,0-0.1,1-0.1,0.9c0,0.2-0.5,1.1-0.1,0.4c0.3-0.7-0.7,0.8,0,0
					c0.2-0.3,0.5-0.5,0.7-0.8c0.7-0.7,1.4-1.4,2-2.1c4.9-4.9,10.1-9.6,15.4-14.3c7.8-7.1,15.5-14.1,23.4-21c9-8,17.9-15.9,26.9-23.8
					c8.6-7.6,17.2-15.1,25.8-22.6l20.4-17.8c3.4-3,7-5.9,10.3-8.9l0.5-0.4l-2.5,1h29c4.5,0,4.5-7,0-7c-9.5,0-19.1-0.3-28.7,0
					c-1.9,0-3,1.2-4.4,2.4l-5.8,5.1c-7.2,6.2-14.3,12.5-21.5,18.7c-9.7,8.5-19.3,16.9-29,25.4c-10.1,8.9-20.1,17.8-30.2,26.8
					c-8.3,7.4-16.5,14.8-24.6,22.3c-4.5,3.9-8.8,8-12.7,12.4c-0.9,0.9-1.5,2.1-1.6,3.3c0.2,1.3,0.6,2.6,1.3,3.8l1.8,4.4l2.8,7.4
					l7.2,17.8l2.1,5.1l8.7,21.7l6.3,15.6c0.5,1.5,1.8,2.5,3.4,2.6c32.1,0,64.3-0.4,96.4-0.6c32.4-0.2,64.8,0,97.1,0.3
					c18.1,0.2,36.3,0.3,54.4,0.3c1.6,0,2.9-1.1,3.4-2.6l14.6-36.1l1.1-2.8l4.2-10.4l4.5-11.1l3.1-7.7l1.7-4.2
					c0.7-1.2,1.1-2.6,1.1-3.9c-0.2-1.9-2-3.5-3.3-4.8c-2.1-2.2-4.3-4.3-6.5-6.3c-7.4-7-14.9-13.7-22.4-20.5
					c-9.7-8.7-19.5-17.4-29.3-26.1c-9.8-8.7-19.8-17.4-29.8-26.2l-23.9-21c-3.8-3.3-7.5-6.6-11.3-9.9c-2.3-1.9-6.3-1.2-9.1-1.2
					h-22.7C272.3,265.1,272.3,272.1,276.8,272.1z"/>

                <linearGradient id="path837_1_" gradientUnits="userSpaceOnUse" x1="218.0499" y1="578.4647" x2="218.653"
                                y2="343.6358" gradientTransform="matrix(1.6594 0 0 -1.6594 23.8827 1104.4183)">
					<stop offset="0" style="stop-color:#40A196"/>
                    <stop offset="1" style="stop-color:#1166A1"/>
				</linearGradient>
                <path shape-rendering="geometricPrecision" id="path837" inkscape:connector-curvature="0" class="st2" d="M319.5,244.8c-0.3-17.1,1.5-34.2,5.6-50.8
					c6.2-24.5,16-47.9,28.9-69.6c6.8-11.6,14.6-22.7,23.3-33l-1.5,0.9l34-11.9l-3.9-1.6c8.6,15.1,16,30.9,22.3,47.1
					c8.1,20.8,14.2,42.3,18.3,64.2c4.2,22,6.2,44.4,6,66.8c-0.2,17.6-1.9,35.2-5.2,52.5c-2.7,13.5-6,26.9-10.1,40.1l-1.3,4.1
					l5.8-1.5l-12.3-11l-29.3-26.1l-35.7-31.8l-30.7-27.3c-5-4.5-9.9-9-15-13.4l-0.2-0.2c-3.3-3-8.4,1.9-4.9,4.9l12.3,11l29.3,26.1
					l35.7,31.8l30.7,27.3c5,4.5,9.9,9,15,13.4l0.2,0.2c1.4,1.4,3.6,1.3,5-0.1c0.4-0.4,0.7-0.9,0.8-1.4c4-12.9,7.6-25.8,10.4-39.1
					c3.6-17.2,5.7-34.7,6.3-52.3c0.6-22.2-0.9-44.4-4.6-66.3c-3.7-22.8-9.5-45.3-17.5-67c-6.3-17.3-13.9-34.2-22.7-50.4
					c-0.9-1.7-1.9-3.4-2.8-5.1c-0.8-1.3-2.4-2-3.9-1.6L383,82.2l-5.8,2.1c-1,0.3-2,0.7-2.9,1c-1.1,0.4-2.1,1.2-2.8,2.2
					c-2.1,2.6-4.2,5.2-6.3,7.9c-9.3,12.2-17.5,25.2-24.5,38.8c-12.4,24.3-22.2,50.2-26,77.4c-1.5,11-2.2,22-2,33.1
					C312.6,249.2,319.6,249.2,319.5,244.8L319.5,244.8z"/>

                <linearGradient id="path829_1_" gradientUnits="userSpaceOnUse" x1="122.6868" y1="578.2198" x2="123.2899"
                                y2="343.3909" gradientTransform="matrix(1.6594 0 0 -1.6594 23.8827 1104.4183)">
					<stop offset="0" style="stop-color:#40A196"/>
                    <stop offset="1" style="stop-color:#1166A1"/>
				</linearGradient>
                <path shape-rendering="geometricPrecision" id="path829" inkscape:connector-curvature="0" class="st3" d="M189.3,458.3c5.7,8.5,11.2,17.3,16.4,26
					c10.7,17.2,20.5,34.9,29.3,53.1c4.5,9,8.1,18.3,11,27.9c0.4,1.5,1.8,2.5,3.4,2.6h15.4c4.5,0,4.5-7,0-7h-15.4l3.4,2.6
					c-2.6-8.8-5.8-17.3-9.8-25.6c-4.3-9.5-9.1-18.7-14.2-27.8c-8.6-15.7-17.9-31.1-27.5-46.2c-2-3.1-3.9-6.1-5.9-9.1
					C192.9,451,186.8,454.5,189.3,458.3L189.3,458.3z"/>

                <linearGradient id="path835_1_" gradientUnits="userSpaceOnUse" x1="182.9423" y1="578.3746" x2="183.5454"
                                y2="343.5457" gradientTransform="matrix(1.6594 0 0 -1.6594 23.8827 1104.4183)">
					<stop offset="0" style="stop-color:#40A196"/>
                    <stop offset="1" style="stop-color:#1166A1"/>
				</linearGradient>
                <path shape-rendering="geometricPrecision" id="path835" inkscape:connector-curvature="0" class="st4" d="M359.8,454.7c-5.7,8.6-11.2,17.4-16.5,26.2
					c-10.8,17.4-20.6,35.3-29.5,53.7c-4.6,9.3-8.4,18.9-11.3,28.8l3.4-2.6h-12.1c-4.5,0-4.5,7,0,7h12.1c1.6,0,2.9-1.1,3.4-2.6
					c2.4-8.4,5.5-16.5,9.3-24.4c4.4-9.5,9.2-18.7,14.2-27.8c8.5-15.5,17.7-30.7,27.2-45.6c1.9-3.1,3.9-6.1,5.9-9.1
					C368.3,454.6,362.3,451.1,359.8,454.7L359.8,454.7z"/>
			</g>
		</g>
        <g id="Warstwa_2_1_" transform="matrix(0.43904286,0,0,0.43904286,37.094029,35.253946)">
			<g id="Warstwa_6">
				<path shape-rendering="geometricPrecision" id="path819" inkscape:connector-curvature="0" class="st5" d="M153.5,591.4C99,681.3,61.7,780.7,43.8,884.3
					c-5.1,30.4-8.7,61.1-10.5,91.9c0.1,7.3,5.9,13.1,13.2,13.2c7.2-0.1,13-6,13.2-13.2c6.5-102.8,32.4-203.4,76.3-296.5
					c12.2-25.7,25.7-50.7,40.5-75.1C185.2,590.1,162.4,576.9,153.5,591.4L153.5,591.4z"/>
                <path shape-rendering="geometricPrecision" id="path821" inkscape:connector-curvature="0" class="st5" d="M1068.3,208.2c-93.6-22.6-190.4-28.9-286.1-18.5
					c-30,3.3-59.8,8.2-89.2,14.7c-16.6,3.6-9.6,29,7,25.4c91.2-20,185.1-24,277.7-11.8c28.2,3.9,56.1,9.1,83.7,15.8
					c16.5,3.9,23.6-21.5,7-25.4V208.2z"/>
                <path shape-rendering="geometricPrecision" id="path825" inkscape:connector-curvature="0" class="st5" d="M1705.4,989.6c17,0,17-26.4,0-26.4
					S1688.4,989.6,1705.4,989.6z"/>
                <path shape-rendering="geometricPrecision" id="path827" inkscape:connector-curvature="0" class="st5" d="M348.2,1653.3l1.8-1c2.5-1.4-1.9,0.6,0.7-0.3
					c2.6-0.9,5.8-2,8.8-2.7c8-2.1,16.1-3.1,24.4-3.1c4.5,0,9.1,0.3,13.6,0.9c6.2,0.5,12.3,2.2,18,4.8c-3.5-2.2-1.9-0.7,0,0.6
					c1.9,1.3,2,1.5,0,0l3.1,2.5c9.8,8.2,19,17.1,27.6,26.6c4.3,4.7,8.4,9.5,12.2,14.7c1.8,2.5,3.5,5,5,7.7c0.6,1,1.1,2.1,1.6,3.1
					c1.5,2.8,0-1.1,0.6,1.7c0.3,1.1,1.1,3.3,0.5,0.8c0.5,1.8,0.4,0,0,1.7c-0.7,1.8-1.9,3.4-3.4,4.5c-5.6,4-12.6,5.8-19.5,4.9
					c-10.5-1.1-16.5-8.2-23.7-15c-8.7-8.1-17.1-16.2-25.6-24.4c-31.9-31.1-62.6-63.4-92.1-96.8c-29.5-33.4-57.5-67.4-83.9-102.1
					c-3.8-6.1-11.7-8.2-18-4.7c-6.2,3.7-8.4,11.7-4.7,18c57.5,75.8,120.8,147,189.4,213c9.8,9.3,19.5,18.9,29.7,27.7
					c9.7,7.5,21.9,11.2,34.1,10.5c19.3-0.6,41.6-12.1,44.2-33.2c1.8-15.6-9.6-29.9-18.8-41.1c-9.6-11.8-20.2-22.8-31.6-32.8
					c-4.5-4.3-9.4-8.2-14.7-11.6c-11.1-5.3-23.1-8.2-35.4-8.4c-17.9-1.3-41,0.7-56.8,10.5c-14.5,8.9-1.2,31.6,13.3,22.8
					L348.2,1653.3z"/>
                <path shape-rendering="geometricPrecision" id="path839" inkscape:connector-curvature="0" class="st5" d="M860,1839.8c14.9,0,29.9,0.4,44.8,0c2.8,0.1,5.5-0.5,8-1.8
					c5.3-3.1,8.8-10.5,12.1-15.8l17.5-26.4c2.8-3.4,4.7-7.6,5.3-12c0-1.1,0-2.2,0-3.3v-38.7c-0.1-7.2-5.9-13.1-13.2-13.2H830.4
					c-7.2,0.1-13.1,5.9-13.2,13.2v34.1c0,2.3,0,4.6,0,7c0.3,4.5,2,8.7,4.8,12.2l26.4,38.1c3.8,6.1,11.7,8.2,18,4.7
					c6.2-3.7,8.4-11.7,4.7-18l-29.5-42.2l1.8,6.6v-42.2l-13.2,13.2h103.9l-13.2-13.2v42.2l1.8-6.6l-28.2,42.2l11.4-6.5h-46.1
					C843,1813.5,843,1839.8,860,1839.8z"/>
                <path shape-rendering="geometricPrecision" id="path841" inkscape:connector-curvature="0" class="st5" d="M43.2,990.5c1.3-0.5,6.4-1.2,2.8-1c1.7-0.1,3.3-0.1,5,0
					c-3.5-0.3,1.8,0.5,2.8,0.7c0.9,0.3,6.6,2.3,4.8,1.5c9.3,4.3,18,9.8,26,16.4c20.6,17,39.8,35.7,57.4,55.9
					c20.1,21.3,38.7,44,55.7,67.8c15.8,23.9,30.1,48.9,42.7,74.6c15.8,31,31.6,62,45.3,94c10.4,24.4,20.2,51.1,21.9,77.5
					c1.5,21.7-2.5,41.2-17.2,58c-17.7,19.5-41.3,32.7-67.2,37.7c-12.3,2.7-25.1,3.1-37.6,1.2c-4.2-0.7-8.4-1.7-12.5-3
					c-1.7-0.5-3.5-1.2-5.3-1.8l-1.7-0.6c-3.5-1.3,1,0.5-1.1-0.5c-6.3-2.9-12.3-6.3-18-10.1c-1.4-0.9-2.6-1.8-4-2.8
					c-2.9-2.1,0.7,0.7-2-1.5c-2.7-2.2-6.1-5.3-9-7.9c-5.6-5.3-10.9-10.9-15.8-16.8l-3.4-4.3c-2.3-2.8,1.6,2.2-0.6-0.8l-1.7-2.2
					c-2.5-3.5-5.3-7-7.4-10.5c-9.7-14.8-18.2-30.3-25.5-46.3c-1.8-4-3.6-8.1-5.3-12.2c-0.9-2.2,1.2,2.8-0.4-0.9l-1.4-3.6
					c-1-2.4-2-4.8-2.9-7.2c-3.5-9-6.8-18.1-9.8-27.3c-6.2-18.8-11.6-38-16.1-57.3c-8.9-37.4-14.9-75.4-17.8-113.7
					c-3.1-32.9-2.9-65.9,0.6-98.7c0-0.9,0-1.8,0.4-2.8c0.4-3.1-0.4,2.3,0,0.3c0.4-2,0.5-3.3,0.7-4.9c0.5-3.1,1.1-6.2,1.7-9.3
					c1.1-5.6,2.6-11.1,4.3-16.6c0.8-2.4,1.7-4.7,2.6-7.1c0.5-1.3-1.5,3,0-0.4c0.5-1.1,1-2.2,1.6-3.3c0.6-1.1,2.1-3.6,3.2-5.3
					s2.9-3,0,0c0.7-0.7,1.3-1.5,2-2.3c0.7-0.7,1.4-1.3,2-2c2.1-2.1-1.3,0.6-0.5,0.4c1.4-0.6,2.8-1.4,4.1-2.3
					c6.3-3.7,8.4-11.7,4.7-18c-3.8-6.1-11.7-8.2-18-4.7c-19.6,8.4-27.2,34.9-31.1,53.6c-6.1,32.5-8.1,65.6-6,98.6
					c3.4,81.5,19.1,165.1,50.5,240.7c26.8,64.7,73.2,141.4,152.2,142.8c54.8,1,119.3-33.1,132.6-89.7c6.2-26.4,1.8-53.7-5.7-79.1
					c-10.3-31.8-23.3-62.8-38.7-92.5c-14.5-29.5-28.9-59.2-45.2-87.8c-17.3-30.1-37.7-58.4-60.7-84.4c-17.8-20.3-35.8-40.4-55.4-59
					c-17.8-17-37.8-35-61.4-43.3c-8.9-3.5-18.8-3.8-28-0.8c-6.7,2.1-10.7,9-9.2,15.9C29,988.3,36.2,992.4,43.2,990.5L43.2,990.5z"/>
                <path shape-rendering="geometricPrecision" id="path843" inkscape:connector-curvature="0" class="st5" d="M1722.9,965.1c-20.4-7.9-43.5,6.6-59.1,18.4
					c-22.1,17.2-42.5,36.4-61.1,57.4c-21.4,22.5-41.2,46.3-59.6,71.4c-17.4,25.3-32.9,51.9-46.4,79.5
					c-16.7,32.9-33.5,65.8-47.9,99.8c-11.3,27.1-21.1,55.2-23.6,84.7c-2.6,25.2,4.2,50.4,18.9,71c18.7,23.8,44.6,41,73.8,49
					c25.6,8.1,53,8.1,78.6,0c15.2-5.5,29.4-13.7,41.8-24.2c27.1-22.5,46.8-53.7,62.1-85.1c36.3-74.5,54.3-158.6,61-240.7
					c3.4-34.6,3.1-69.5-0.7-104.1c-2.9-22.9-7.1-50.5-24-67.8c-3-3.2-6.6-5.8-10.5-7.6c-6.3-3.4-14.2-1.4-18,4.7
					c-3.6,6.3-1.5,14.4,4.7,18c1.3,0.9,2.7,1.6,4.1,2.3c0.6,0-2.5-2.4-0.6-0.4c0.6,0.7,1.4,1.3,2.1,2c0.7,0.7,1.2,1.6,1.9,2.3
					c-3-2.9-1.1-1.5,0,0c1.1,1.5,2.2,3.5,3.2,5.3c1,1.7,1.1,2.2,1.6,3.3c0.2,0.4,0.4,0.8,0.5,1.2c1.2,2.2-1.2-3.2-0.3-0.8
					c0.8,2.4,1.9,5,2.7,7.5c1.7,5.5,3.1,11,4.2,16.6c0.6,3,1.2,5.9,1.6,8.9c0.3,1.5,0.5,3,0.7,4.5c0.5,3.2-0.4-3.1,0,0
					c0,1.1,0.3,2.2,0.4,3.3c0.8,7.3,1.5,14.6,1.8,21.9c0.9,16.8,0.9,33.6,0,50.4c-0.7,18.5-2.3,36.9-4.4,55.4l-0.8,6.5
					c0,1.1-0.3,2.2-0.4,3.3c-0.4,2.5,0.4-3.2,0,1.1c-0.7,5.3-1.5,10.5-2.4,15.8c-1.5,9.8-3.3,19.6-5.3,29.3
					c-7.4,38.8-18.2,76.9-32.4,113.8c-0.8,2-1.6,4-2.4,6c0,0.7-2.4,5.9-1.6,4c-2,4.7-4.1,9.4-6.2,13.9c-3.8,8.1-7.9,16.2-12.2,24.1
					s-8.6,14.9-13.4,22c-2.1,3.1-4.2,6.2-6.4,9.2l-2,2.6c-2.2,3,1.7-2.1-0.6,0.8c-1.4,1.8-2.7,3.5-4.1,5.3
					c-4.9,5.9-10.2,11.5-15.8,16.7c-2.5,2.4-5.3,4.6-7.9,6.9l-1.9,1.5c2.6-2.1,0,0-0.5,0.3c-1.5,1.1-3.1,2.3-4.7,3.3
					c-5.7,3.9-11.8,7.2-18.1,10c3.5-1.5-1.1,0.4-2,0.7c-0.9,0.3-3.2,1.2-4.8,1.6c-4.8,1.6-9.7,2.7-14.7,3.4
					c-46.1,6.3-105.8-21.4-117.9-67.5c-5.6-21.1-1.3-45.2,5.3-67.3c9.5-29.8,21.6-58.7,36-86.4c28.2-57.5,56.4-115.1,98.8-163.5
					c16.7-19.1,33.7-38.1,51.7-56c16.2-15.8,33.8-33.3,55-42.2c-2.5,1.1,1.2-0.4,1.4-0.5l3.3-1.1c1.1,0,6.2-1,2.8-0.7
					c1.6-0.1,3.3-0.1,4.9,0c-3.6,0,1.6,0.5,2.8,1c7,1.9,14.2-2.2,16.2-9.2c2.1-7.1-2-14.7-9.1-16.8
					C1723.1,965.2,1723,965.1,1722.9,965.1z"/>
                <path shape-rendering="geometricPrecision" id="path845" inkscape:connector-curvature="0" class="st5" d="M1053.9,1408.5c-15.5-16.7-6.1-59.8,17.7-79.1
					c23.8-19.3,58-11.3,93.9-2.8c25.5,6,50,15.9,72.5,29.3C1114.6,1422.8,1069.1,1425.1,1053.9,1408.5z"/>
                <path shape-rendering="geometricPrecision" id="path849" inkscape:connector-curvature="0" class="st5" d="M694.4,1408.5c15.4-16.7,6.1-59.8-17.8-79.1
					c-23.8-19.3-57.8-11.3-93.8-2.8c-25.5,6-50,15.9-72.5,29.3C633.5,1422.8,679.2,1425.1,694.4,1408.5z"/>
                <path shape-rendering="geometricPrecision" id="path853" inkscape:connector-curvature="0" class="st5" d="M1588.2,604.7c52.9,87.3,89,183.7,106.6,284.3
					c5,28.9,8.4,58,10.2,87.2c0.2,7.2,6,13,13.2,13.2c7.3,0,13.2-5.9,13.2-13.2c-8.3-136.2-49.6-268.4-120.4-385
					c-8.8-14.5-31.6-1.3-22.8,13.3L1588.2,604.7z"/>
			</g>
		</g>

        <linearGradient id="path847_1_" gradientUnits="userSpaceOnUse" x1="285.0706" y1="848.3433" x2="285.6736"
                        y2="613.5144" gradientTransform="matrix(1.6594 0 0 -1.6594 64.2421 1536.2693)">
			<stop offset="0" style="stop-color:#40A196"/>
            <stop offset="1" style="stop-color:#1166A1"/>
		</linearGradient>
        <path shape-rendering="geometricPrecision" id="path847" inkscape:connector-curvature="0" class="st6" d="M503.9,649.5c-0.7-0.8,0.1,0.4-0.4-0.5
			c-0.1-0.2-0.7-1.4-0.4-0.6c-0.2-0.6-0.4-1.3-0.6-2c-0.1-0.3-0.1-0.6-0.2-0.9c0.1,0.6,0,0,0-0.3c-0.2-2.7,0-5.4,0.7-8
			c1.2-5.6,4.3-10.7,8.8-14.3c5.6-4,13-3.8,19.5-2.9c8.7,1.2,17.2,3.2,25.5,6c7.3,2.4,14.3,5.7,20.8,9.6v-10
			c-15.1,8.6-30.8,15.9-47.1,21.9c-4.8,1.7-9.8,3-14.8,3.9c-0.7,0.1-1.4,0.2-0.3,0l-1.5,0.2c-0.9,0.1-1.7,0.1-2.6,0.1
			c-0.8,0-1.6,0-2.3,0c-0.3,0-0.7,0-1,0c0.4,0,1.2,0.3,0,0c-0.6-0.1-1.3-0.3-1.9-0.5c-0.3-0.2-0.6-0.3-1-0.3c0,0,1.3,0.7,0.4,0.1
			c-0.5-0.3-1-0.6-1.5-0.9c0.5,0.2,1.1,1,0.4,0.3l-0.6-0.7c-5.1-5.4-13.3,2.8-8.2,8.2c4.8,5.1,12.3,5.9,18.9,5.3
			c12.9-1.3,25.2-6.4,37.1-11.6c10.9-4.8,21.5-10.2,32-15.9c2.8-1.7,3.7-5.2,2-8c-0.5-0.8-1.2-1.5-2-2
			c-16.2-9.3-34.2-15.2-52.8-17.2c-9-1.1-18.5-0.1-26,5.5c-6.4,5.1-10.9,12.2-12.9,20.2c-2,8-1.9,17.1,3.8,23.6
			c2.3,2.2,5.9,2.2,8.2,0C506.2,655.5,506.2,651.8,503.9,649.5L503.9,649.5z"/>

        <linearGradient id="path851_1_" gradientUnits="userSpaceOnUse" x1="143.2756" y1="847.9791" x2="143.8786"
                        y2="613.1503" gradientTransform="matrix(1.6594 0 0 -1.6594 64.2421 1536.2693)">
			<stop offset="0" style="stop-color:#40A196"/>
            <stop offset="1" style="stop-color:#1166A1"/>
		</linearGradient>
        <path shape-rendering="geometricPrecision" id="path851" inkscape:connector-curvature="0" class="st7" d="M346.1,657.8c10.2-11.7,3.7-32.1-6.5-41.7
			c-6.8-6-15.9-8.9-24.9-8c-10.4,0.8-20.6,2.8-30.5,6c-9.1,2.8-17.8,6.7-26,11.6c-2.8,1.7-3.7,5.2-2,8c0.5,0.8,1.2,1.5,2,2
			c16.4,8.8,33.3,17.5,50.9,23.4c8.8,2.9,18.5,5.5,27.8,3.6c3.4-0.7,6.5-2.4,9-4.8c5.1-5.4-3.1-13.6-8.2-8.2c-0.2,0.3-0.9,0.7-1,1
			c-0.1,0.3,1.3-0.8,0.5-0.4c-0.2,0.1-0.5,0.3-0.7,0.4c-0.3,0.1-0.5,0.2-0.7,0.4c-0.5,0.4,1.4-0.4,0.5-0.2c-0.6,0.1-1.1,0.4-1.7,0.5
			c-0.6,0.1-2.3,0.4-1.3,0.3c1-0.1,0,0-0.3,0c-0.3,0-0.9,0-1.4,0c-1.7,0-3.5-0.1-5.2-0.3c-0.6,0,0.6,0,0.6,0H326l-1.5-0.3
			c-1.2-0.2-2.3-0.5-3.6-0.8c-2.6-0.6-5.2-1.3-7.7-2.2c-6.6-2.1-13-4.6-19.3-7.5c-10.2-4.6-20.2-9.7-30.1-15.1v10
			c13.4-7.6,28.1-12.7,43.3-15.1c6.4-1.2,13.9-2.1,20.1,0.9c5.1,2.9,8.9,7.6,10.6,13.3c1.1,3,1.6,6.1,1.5,9.3
			c0.1,1.1-0.1,2.3-0.5,3.4c-0.1,0.4-0.2,0.7-0.3,1.1c0.2-0.6,0-0.2-0.1,0.2c-0.1,0.3-0.3,0.5-0.4,0.7c-0.5,0.8,0.8-0.9-0.2,0.3
			c-2.2,2.3-2.2,5.9,0,8.2C340,660.1,343.7,660.1,346.1,657.8C346,657.8,346.1,657.8,346.1,657.8L346.1,657.8z"/>
        <ellipse id="path1005" class="st5" cx="424.9" cy="817.6" rx="21.5" ry="18.1"/>
	</g>
</g>
</svg>
